<svg width="36" height="35" viewBox="0 0 36 35" fill="none" xmlns="http://www.w3.org/2000/svg">
<g filter="url(#filter0_d_203_7)">
<path d="M25 19C26.49 17.54 28 15.79 28 13.5C28 12.0413 27.4205 10.6424 26.3891 9.61091C25.3576 8.57946 23.9587 8 22.5 8C20.74 8 19.5 8.5 18 10C16.5 8.5 15.26 8 13.5 8C12.0413 8 10.6424 8.57946 9.61091 9.61091C8.57946 10.6424 8 12.0413 8 13.5C8 15.8 9.5 17.55 11 19L18 26L25 19Z" stroke="#C499F3" stroke-width="2" stroke-linecap="round" stroke-linejoin="round"/>
<path d="M9.21997 17H15.5L16 16L18 20.5L20 13.5L21.5 17H26.77" stroke="#C499F3" stroke-width="2" stroke-linecap="round" stroke-linejoin="round"/>
</g>
<defs>
<filter id="filter0_d_203_7" x="3" y="7" width="30" height="28" filterUnits="userSpaceOnUse" color-interpolation-filters="sRGB">
<feFlood flood-opacity="0" result="BackgroundImageFix"/>
<feColorMatrix in="SourceAlpha" type="matrix" values="0 0 0 0 0 0 0 0 0 0 0 0 0 0 0 0 0 0 127 0" result="hardAlpha"/>
<feOffset dy="4"/>
<feGaussianBlur stdDeviation="2"/>
<feComposite in2="hardAlpha" operator="out"/>
<feColorMatrix type="matrix" values="0 0 0 0 0.345333 0 0 0 0 0 0 0 0 0 0.616667 0 0 0 1 0"/>
<feBlend mode="normal" in2="BackgroundImageFix" result="effect1_dropShadow_203_7"/>
<feBlend mode="normal" in="SourceGraphic" in2="effect1_dropShadow_203_7" result="shape"/>
</filter>
</defs>
</svg>
