<svg width="304" height="520" viewBox="0 0 304 520" fill="none" xmlns="http://www.w3.org/2000/svg">
<g filter="url(#filter0_d_193_33)">
<g filter="url(#filter1_d_193_33)">
<path d="M268 258C269.49 256.54 271 254.79 271 252.5C271 251.041 270.421 249.642 269.389 248.611C268.358 247.579 266.959 247 265.5 247C263.74 247 262.5 247.5 261 249C259.5 247.5 258.26 247 256.5 247C255.041 247 253.642 247.579 252.611 248.611C251.579 249.642 251 251.041 251 252.5C251 254.8 252.5 256.55 254 258L261 265L268 258Z" stroke="#C499F3" stroke-width="2" stroke-linecap="round" stroke-linejoin="round" shape-rendering="crispEdges"/>
</g>
<g filter="url(#filter2_d_193_33)">
<path d="M261 249L258.04 251.96C257.837 252.162 257.676 252.402 257.566 252.666C257.456 252.93 257.399 253.214 257.399 253.5C257.399 253.786 257.456 254.07 257.566 254.334C257.676 254.598 257.837 254.838 258.04 255.04C258.86 255.86 260.17 255.89 261.04 255.11L263.11 253.21C263.629 252.739 264.304 252.478 265.005 252.478C265.706 252.478 266.381 252.739 266.9 253.21L269.86 255.87" stroke="#C499F3" stroke-width="2" stroke-linecap="round" stroke-linejoin="round" shape-rendering="crispEdges"/>
</g>
<g filter="url(#filter3_d_193_33)">
<path d="M267 259L265 257" stroke="#C499F3" stroke-width="2" stroke-linecap="round" stroke-linejoin="round" shape-rendering="crispEdges"/>
</g>
<g filter="url(#filter4_d_193_33)">
<path d="M264 262L262 260" stroke="#C499F3" stroke-width="2" stroke-linecap="round" stroke-linejoin="round" shape-rendering="crispEdges"/>
</g>
</g>
<defs>
<filter id="filter0_d_193_33" x="246" y="246" width="30" height="28" filterUnits="userSpaceOnUse" color-interpolation-filters="sRGB">
<feFlood flood-opacity="0" result="BackgroundImageFix"/>
<feColorMatrix in="SourceAlpha" type="matrix" values="0 0 0 0 0 0 0 0 0 0 0 0 0 0 0 0 0 0 127 0" result="hardAlpha"/>
<feOffset dy="4"/>
<feGaussianBlur stdDeviation="2"/>
<feComposite in2="hardAlpha" operator="out"/>
<feColorMatrix type="matrix" values="0 0 0 0 0.345333 0 0 0 0 0 0 0 0 0 0.616667 0 0 0 1 0"/>
<feBlend mode="normal" in2="BackgroundImageFix" result="effect1_dropShadow_193_33"/>
<feBlend mode="normal" in="SourceGraphic" in2="effect1_dropShadow_193_33" result="shape"/>
</filter>
<filter id="filter1_d_193_33" x="0" y="0" width="522" height="520" filterUnits="userSpaceOnUse" color-interpolation-filters="sRGB">
<feFlood flood-opacity="0" result="BackgroundImageFix"/>
<feColorMatrix in="SourceAlpha" type="matrix" values="0 0 0 0 0 0 0 0 0 0 0 0 0 0 0 0 0 0 127 0" result="hardAlpha"/>
<feOffset dy="4"/>
<feGaussianBlur stdDeviation="125"/>
<feComposite in2="hardAlpha" operator="out"/>
<feColorMatrix type="matrix" values="0 0 0 0 1 0 0 0 0 0 0 0 0 0 0 0 0 0 1 0"/>
<feBlend mode="normal" in2="BackgroundImageFix" result="effect1_dropShadow_193_33"/>
<feBlend mode="normal" in="SourceGraphic" in2="effect1_dropShadow_193_33" result="shape"/>
</filter>
<filter id="filter2_d_193_33" x="6.39893" y="2" width="514.461" height="508.87" filterUnits="userSpaceOnUse" color-interpolation-filters="sRGB">
<feFlood flood-opacity="0" result="BackgroundImageFix"/>
<feColorMatrix in="SourceAlpha" type="matrix" values="0 0 0 0 0 0 0 0 0 0 0 0 0 0 0 0 0 0 127 0" result="hardAlpha"/>
<feOffset dy="4"/>
<feGaussianBlur stdDeviation="125"/>
<feComposite in2="hardAlpha" operator="out"/>
<feColorMatrix type="matrix" values="0 0 0 0 1 0 0 0 0 0 0 0 0 0 0 0 0 0 1 0"/>
<feBlend mode="normal" in2="BackgroundImageFix" result="effect1_dropShadow_193_33"/>
<feBlend mode="normal" in="SourceGraphic" in2="effect1_dropShadow_193_33" result="shape"/>
</filter>
<filter id="filter3_d_193_33" x="14" y="10" width="504" height="504" filterUnits="userSpaceOnUse" color-interpolation-filters="sRGB">
<feFlood flood-opacity="0" result="BackgroundImageFix"/>
<feColorMatrix in="SourceAlpha" type="matrix" values="0 0 0 0 0 0 0 0 0 0 0 0 0 0 0 0 0 0 127 0" result="hardAlpha"/>
<feOffset dy="4"/>
<feGaussianBlur stdDeviation="125"/>
<feComposite in2="hardAlpha" operator="out"/>
<feColorMatrix type="matrix" values="0 0 0 0 1 0 0 0 0 0 0 0 0 0 0 0 0 0 1 0"/>
<feBlend mode="normal" in2="BackgroundImageFix" result="effect1_dropShadow_193_33"/>
<feBlend mode="normal" in="SourceGraphic" in2="effect1_dropShadow_193_33" result="shape"/>
</filter>
<filter id="filter4_d_193_33" x="11" y="13" width="504" height="504" filterUnits="userSpaceOnUse" color-interpolation-filters="sRGB">
<feFlood flood-opacity="0" result="BackgroundImageFix"/>
<feColorMatrix in="SourceAlpha" type="matrix" values="0 0 0 0 0 0 0 0 0 0 0 0 0 0 0 0 0 0 127 0" result="hardAlpha"/>
<feOffset dy="4"/>
<feGaussianBlur stdDeviation="125"/>
<feComposite in2="hardAlpha" operator="out"/>
<feColorMatrix type="matrix" values="0 0 0 0 1 0 0 0 0 0 0 0 0 0 0 0 0 0 1 0"/>
<feBlend mode="normal" in2="BackgroundImageFix" result="effect1_dropShadow_193_33"/>
<feBlend mode="normal" in="SourceGraphic" in2="effect1_dropShadow_193_33" result="shape"/>
</filter>
</defs>
</svg>
