<svg width="100" height="100" viewBox="0 0 100 100" fill="none" xmlns="http://www.w3.org/2000/svg">
<path d="M87.5 66.6667V33.3334C87.4985 31.872 87.1127 30.4367 86.3814 29.1716C85.6501 27.9064 84.5989 26.8557 83.3333 26.125L54.1667 9.45837C52.8998 8.72697 51.4628 8.34192 50 8.34192C48.5372 8.34192 47.1002 8.72697 45.8333 9.45837L16.6667 26.125C15.4011 26.8557 14.3499 27.9064 13.6186 29.1716C12.8873 30.4367 12.5015 31.872 12.5 33.3334V66.6667C12.5015 68.1281 12.8873 69.5633 13.6186 70.8285C14.3499 72.0937 15.4011 73.1444 16.6667 73.875L45.8333 90.5417C47.1002 91.2731 48.5372 91.6582 50 91.6582C51.4628 91.6582 52.8998 91.2731 54.1667 90.5417L83.3333 73.875C84.5989 73.1444 85.6501 72.0937 86.3814 70.8285C87.1127 69.5633 87.4985 68.1281 87.5 66.6667Z" stroke="white" stroke-width="2" stroke-linecap="round" stroke-linejoin="round"/>
<path d="M31.25 17.5416L50 28.375L68.75 17.5416" stroke="white" stroke-width="2" stroke-linecap="round" stroke-linejoin="round"/>
<path d="M31.25 82.4583V60.8333L12.5 50" stroke="white" stroke-width="2" stroke-linecap="round" stroke-linejoin="round"/>
<path d="M87.5 50L68.75 60.8333V82.4583" stroke="white" stroke-width="2" stroke-linecap="round" stroke-linejoin="round"/>
<path d="M13.625 29L50 50.0417L86.375 29" stroke="white" stroke-width="2" stroke-linecap="round" stroke-linejoin="round"/>
<path d="M50 92V50" stroke="white" stroke-width="2" stroke-linecap="round" stroke-linejoin="round"/>
</svg>
