<svg width="24" height="35" viewBox="0 0 24 35" fill="none" xmlns="http://www.w3.org/2000/svg">
<g filter="url(#filter0_d_203_9)">
<path d="M15 18C15.2 17 15.7 16.3 16.5 15.5C17.5 14.6 18 13.3 18 12C18 10.4087 17.3679 8.88258 16.2426 7.75736C15.1174 6.63214 13.5913 6 12 6C10.4087 6 8.88258 6.63214 7.75736 7.75736C6.63214 8.88258 6 10.4087 6 12C6 13 6.2 14.2 7.5 15.5C8.2 16.2 8.8 17 9 18" stroke="#C499F3" stroke-width="2" stroke-linecap="round" stroke-linejoin="round"/>
<path d="M9 22H15" stroke="#C499F3" stroke-width="2" stroke-linecap="round" stroke-linejoin="round"/>
<path d="M10 26H14" stroke="#C499F3" stroke-width="2" stroke-linecap="round" stroke-linejoin="round"/>
</g>
<defs>
<filter id="filter0_d_203_9" x="1" y="5" width="22" height="30" filterUnits="userSpaceOnUse" color-interpolation-filters="sRGB">
<feFlood flood-opacity="0" result="BackgroundImageFix"/>
<feColorMatrix in="SourceAlpha" type="matrix" values="0 0 0 0 0 0 0 0 0 0 0 0 0 0 0 0 0 0 127 0" result="hardAlpha"/>
<feOffset dy="4"/>
<feGaussianBlur stdDeviation="2"/>
<feComposite in2="hardAlpha" operator="out"/>
<feColorMatrix type="matrix" values="0 0 0 0 0.345333 0 0 0 0 0 0 0 0 0 0.616667 0 0 0 1 0"/>
<feBlend mode="normal" in2="BackgroundImageFix" result="effect1_dropShadow_203_9"/>
<feBlend mode="normal" in="SourceGraphic" in2="effect1_dropShadow_203_9" result="shape"/>
</filter>
</defs>
</svg>
