<svg width="22" height="30" viewBox="0 0 22 30" fill="none" xmlns="http://www.w3.org/2000/svg">
<g filter="url(#filter0_d_194_6)">
<path d="M14 13C14.2 12 14.7 11.3 15.5 10.5C16.5 9.6 17 8.3 17 7C17 5.4087 16.3679 3.88258 15.2426 2.75736C14.1174 1.63214 12.5913 1 11 1C9.4087 1 7.88258 1.63214 6.75736 2.75736C5.63214 3.88258 5 5.4087 5 7C5 8 5.2 9.2 6.5 10.5C7.2 11.2 7.8 12 8 13" stroke="#C499F3" stroke-width="2" stroke-linecap="round" stroke-linejoin="round"/>
<path d="M8 17H14" stroke="#C499F3" stroke-width="2" stroke-linecap="round" stroke-linejoin="round"/>
<path d="M9 21H13" stroke="#C499F3" stroke-width="2" stroke-linecap="round" stroke-linejoin="round"/>
</g>
<defs>
<filter id="filter0_d_194_6" x="0" y="0" width="22" height="30" filterUnits="userSpaceOnUse" color-interpolation-filters="sRGB">
<feFlood flood-opacity="0" result="BackgroundImageFix"/>
<feColorMatrix in="SourceAlpha" type="matrix" values="0 0 0 0 0 0 0 0 0 0 0 0 0 0 0 0 0 0 127 0" result="hardAlpha"/>
<feOffset dy="4"/>
<feGaussianBlur stdDeviation="2"/>
<feComposite in2="hardAlpha" operator="out"/>
<feColorMatrix type="matrix" values="0 0 0 0 0.345333 0 0 0 0 0 0 0 0 0 0.616667 0 0 0 1 0"/>
<feBlend mode="normal" in2="BackgroundImageFix" result="effect1_dropShadow_194_6"/>
<feBlend mode="normal" in="SourceGraphic" in2="effect1_dropShadow_194_6" result="shape"/>
</filter>
</defs>
</svg>
