<svg width="26" height="30" viewBox="0 0 26 30" fill="none" xmlns="http://www.w3.org/2000/svg">
<g filter="url(#filter0_d_193_36)">
<path d="M13 21C13 21 21 17 21 11V4L13 1L5 4V11C5 17 13 21 13 21Z" stroke="#C499F3" stroke-width="2" stroke-linecap="round" stroke-linejoin="round"/>
<path d="M10.1001 7.99999C10.3401 7.33862 10.8049 6.78263 11.4132 6.42921C12.0216 6.0758 12.7348 5.94745 13.4282 6.06659C14.1216 6.18573 14.7511 6.54479 15.2066 7.08099C15.6621 7.6172 15.9146 8.29644 15.9201 8.99999C15.9201 11 12.9201 12 12.9201 12" stroke="#C499F3" stroke-width="2" stroke-linecap="round" stroke-linejoin="round"/>
<path d="M13 16H13.01" stroke="#C499F3" stroke-width="2" stroke-linecap="round" stroke-linejoin="round"/>
</g>
<defs>
<filter id="filter0_d_193_36" x="0" y="0" width="26" height="30" filterUnits="userSpaceOnUse" color-interpolation-filters="sRGB">
<feFlood flood-opacity="0" result="BackgroundImageFix"/>
<feColorMatrix in="SourceAlpha" type="matrix" values="0 0 0 0 0 0 0 0 0 0 0 0 0 0 0 0 0 0 127 0" result="hardAlpha"/>
<feOffset dy="4"/>
<feGaussianBlur stdDeviation="2"/>
<feComposite in2="hardAlpha" operator="out"/>
<feColorMatrix type="matrix" values="0 0 0 0 0.345333 0 0 0 0 0 0 0 0 0 0.616667 0 0 0 1 0"/>
<feBlend mode="normal" in2="BackgroundImageFix" result="effect1_dropShadow_193_36"/>
<feBlend mode="normal" in="SourceGraphic" in2="effect1_dropShadow_193_36" result="shape"/>
</filter>
</defs>
</svg>
